<?xml version="1.0" encoding="UTF-8" standalone="no"?>
<!-- Created with Inkscape (http://www.inkscape.org/) -->

<svg
   width="106.09792mm"
   height="63.764584mm"
   viewBox="0 0 106.09792 63.764584"
   version="1.1"
   id="svg1"
   xml:space="preserve"
   inkscape:version="1.4.3 (0d15f75042, 2025-12-25)"
   sodipodi:docname="dark.svg"
   xmlns:inkscape="http://www.inkscape.org/namespaces/inkscape"
   xmlns:sodipodi="http://sodipodi.sourceforge.net/DTD/sodipodi-0.dtd"
   xmlns:xlink="http://www.w3.org/1999/xlink"
   xmlns="http://www.w3.org/2000/svg"
   xmlns:svg="http://www.w3.org/2000/svg"><sodipodi:namedview
     id="namedview1"
     pagecolor="#ffffff"
     bordercolor="#000000"
     borderopacity="0.25"
     inkscape:showpageshadow="2"
     inkscape:pageopacity="0.0"
     inkscape:pagecheckerboard="0"
     inkscape:deskcolor="#d1d1d1"
     inkscape:document-units="mm"
     inkscape:zoom="2"
     inkscape:cx="168.75"
     inkscape:cy="68.5"
     inkscape:window-width="2560"
     inkscape:window-height="1403"
     inkscape:window-x="0"
     inkscape:window-y="0"
     inkscape:window-maximized="1"
     inkscape:current-layer="layer1" /><defs
     id="defs1"><linearGradient
       id="d"
       gradientUnits="userSpaceOnUse"
       x1="108.25208"
       x2="83.944199"
       y1="90.550278"
       y2="104.58444"><stop
         offset="0"
         stop-color="#89e777"
         id="stop13" /><stop
         offset="0.5"
         stop-color="#fc7474"
         id="stop14" /><stop
         offset="0.852229"
         stop-color="#009ccd"
         id="stop15" /></linearGradient><linearGradient
       id="c"
       gradientUnits="userSpaceOnUse"
       x1="108.25208"
       x2="83.944199"
       y1="90.550278"
       y2="104.58444"><stop
         offset="0"
         stop-color="#89e777"
         id="stop10" /><stop
         offset="0.5"
         stop-color="#fc7474"
         id="stop11" /><stop
         offset="0.852788"
         stop-color="#009ccd"
         id="stop12" /></linearGradient><linearGradient
       id="b"
       gradientUnits="userSpaceOnUse"
       x1="28"
       x2="44"
       y1="37.685501"
       y2="37.685501"><stop
         offset="0"
         stop-color="#009ccd"
         id="stop34" /><stop
         offset="0.5"
         stop-color="#89e777"
         id="stop35" /><stop
         offset="1"
         stop-color="#fc7474"
         id="stop36" /></linearGradient><linearGradient
       id="a"
       gradientTransform="matrix(0.232143,0,0,0.328947,-8.58254,263.82696)"
       gradientUnits="userSpaceOnUse"
       x1="88.595886"
       x2="536.59589"
       y1="-449.39401"
       y2="-449.39401"><stop
         offset="0"
         stop-color="#77767b"
         id="stop43" /><stop
         offset="0.0384615"
         stop-color="#c0bfbc"
         id="stop44" /><stop
         offset="0.0768555"
         stop-color="#9a9996"
         id="stop45" /><stop
         offset="0.923077"
         stop-color="#9a9996"
         id="stop46" /><stop
         offset="0.961538"
         stop-color="#c0bfbc"
         id="stop47" /><stop
         offset="1"
         stop-color="#77767b"
         id="stop48" /></linearGradient><linearGradient
       inkscape:collect="always"
       xlink:href="#b"
       id="linearGradient48"
       gradientUnits="userSpaceOnUse"
       x1="28"
       y1="37.685501"
       x2="44"
       y2="37.685501"
       gradientTransform="matrix(0.26458333,0,0,0.26458333,21.219074,121.61983)" /><linearGradient
       inkscape:collect="always"
       xlink:href="#c"
       id="linearGradient51"
       gradientUnits="userSpaceOnUse"
       x1="108.25208"
       y1="90.550278"
       x2="83.944199"
       y2="104.58444" /><linearGradient
       inkscape:collect="always"
       xlink:href="#d"
       id="linearGradient52"
       gradientUnits="userSpaceOnUse"
       x1="108.25208"
       y1="90.550278"
       x2="83.944199"
       y2="104.58444" /><linearGradient
       inkscape:collect="always"
       xlink:href="#a"
       id="linearGradient2"
       gradientUnits="userSpaceOnUse"
       gradientTransform="matrix(0.06142117,0,0,0.08703389,18.948277,191.42405)"
       x1="88.595886"
       y1="-449.39401"
       x2="536.59589"
       y2="-449.39401" /><linearGradient
       inkscape:collect="always"
       xlink:href="#b"
       id="linearGradient3"
       gradientUnits="userSpaceOnUse"
       x1="28"
       y1="37.685501"
       x2="44"
       y2="37.685501"
       gradientTransform="matrix(0.26458333,0,0,0.26458333,21.219074,121.61983)" /><linearGradient
       inkscape:collect="always"
       xlink:href="#b"
       id="linearGradient4"
       gradientUnits="userSpaceOnUse"
       x1="28"
       y1="37.685501"
       x2="44"
       y2="37.685501"
       gradientTransform="matrix(0.26458333,0,0,0.26458333,21.219074,121.61983)" /><linearGradient
       inkscape:collect="always"
       xlink:href="#c"
       id="linearGradient5"
       gradientUnits="userSpaceOnUse"
       x1="108.25208"
       y1="90.550278"
       x2="83.944199"
       y2="104.58444" /><linearGradient
       inkscape:collect="always"
       xlink:href="#d"
       id="linearGradient6"
       gradientUnits="userSpaceOnUse"
       x1="108.25208"
       y1="90.550278"
       x2="83.944199"
       y2="104.58444" /><linearGradient
       inkscape:collect="always"
       xlink:href="#d"
       id="linearGradient7"
       gradientUnits="userSpaceOnUse"
       x1="108.25208"
       y1="90.550278"
       x2="83.944199"
       y2="104.58444" /><linearGradient
       inkscape:collect="always"
       xlink:href="#c"
       id="linearGradient8"
       gradientUnits="userSpaceOnUse"
       x1="108.25208"
       y1="90.550278"
       x2="83.944199"
       y2="104.58444" /><linearGradient
       inkscape:collect="always"
       xlink:href="#d"
       id="linearGradient9"
       gradientUnits="userSpaceOnUse"
       x1="108.25208"
       y1="90.550278"
       x2="83.944199"
       y2="104.58444" /><linearGradient
       inkscape:collect="always"
       xlink:href="#d"
       id="linearGradient10"
       gradientUnits="userSpaceOnUse"
       x1="108.25208"
       y1="90.550278"
       x2="83.944199"
       y2="104.58444" /><linearGradient
       inkscape:collect="always"
       xlink:href="#d"
       id="linearGradient11"
       gradientUnits="userSpaceOnUse"
       x1="108.25208"
       y1="90.550278"
       x2="83.944199"
       y2="104.58444" /><linearGradient
       inkscape:collect="always"
       xlink:href="#d"
       id="linearGradient12"
       gradientUnits="userSpaceOnUse"
       x1="108.25208"
       y1="90.550278"
       x2="83.944199"
       y2="104.58444" /><linearGradient
       inkscape:collect="always"
       xlink:href="#d"
       id="linearGradient13"
       gradientUnits="userSpaceOnUse"
       x1="108.25208"
       y1="90.550278"
       x2="83.944199"
       y2="104.58444" /><filter
       style="color-interpolation-filters:sRGB;"
       inkscape:label="Drop Shadow"
       id="filter17"
       x="-0.21801692"
       y="-0.21804964"
       width="1.4360338"
       height="1.5087825"><feFlood
         result="flood"
         in="SourceGraphic"
         flood-opacity="0.219608"
         flood-color="rgb(0,0,0)"
         id="feFlood16" /><feGaussianBlur
         result="blur"
         in="SourceGraphic"
         stdDeviation="2.500000"
         id="feGaussianBlur16" /><feOffset
         result="offset"
         in="blur"
         dx="0.000000"
         dy="2.000000"
         id="feOffset16" /><feComposite
         result="comp1"
         operator="in"
         in="flood"
         in2="offset"
         id="feComposite16" /><feComposite
         result="comp2"
         operator="over"
         in="SourceGraphic"
         in2="comp1"
         id="feComposite17" /></filter><filter
       style="color-interpolation-filters:sRGB;"
       inkscape:label="Drop Shadow"
       id="filter20"
       x="-0.34882707"
       y="-0.34887942"
       width="1.6976541"
       height="1.7704421"><feFlood
         result="flood"
         in="SourceGraphic"
         flood-opacity="0.650980"
         flood-color="rgb(0,0,0)"
         id="feFlood19" /><feGaussianBlur
         result="blur"
         in="SourceGraphic"
         stdDeviation="4.000000"
         id="feGaussianBlur19" /><feOffset
         result="offset"
         in="blur"
         dx="0.000000"
         dy="2.000000"
         id="feOffset19" /><feComposite
         result="comp1"
         operator="in"
         in="flood"
         in2="offset"
         id="feComposite19" /><feComposite
         result="comp2"
         operator="over"
         in="SourceGraphic"
         in2="comp1"
         id="feComposite20" /></filter><filter
       inkscape:collect="always"
       style="color-interpolation-filters:sRGB"
       id="filter45"
       x="-0.2999775"
       y="-0.30002252"
       width="1.599955"
       height="1.600045"><feGaussianBlur
         inkscape:collect="always"
         stdDeviation="3.4398419"
         id="feGaussianBlur45" /></filter></defs><rect
     style="fill:#0d1117;fill-opacity:1;stroke:#30363d;stroke-width:0.264583;stroke-dasharray:none;stroke-opacity:1"
     id="rect1"
     width="105.83334"
     height="63.5"
     x="54.023273"
     y="58.119827"
     rx="2.6458333"
     ry="2.6458333"
     transform="translate(-53.890982,-57.987536)" /><g
     inkscape:label="Layer 1"
     inkscape:groupmode="layer"
     id="layer1"
     transform="translate(-53.890982,-57.987536)"><g
       id="g45"
       style="filter:url(#filter45);fill:#ffffff;opacity:0.218"
       transform="translate(68.789605,-50.637593)"><path
         d="m 26.506606,125.85316 h 23.283335 c 1.168918,0 2.116666,0.94775 2.116666,2.11667 v 22.225 c 0,1.16892 -0.947748,2.11667 -2.116666,2.11667 H 26.506606 c -1.16892,0 -2.116666,-0.94775 -2.116666,-2.11667 v -22.225 c 0,-1.16892 0.947746,-2.11667 2.116666,-2.11667 z m 0,0"
         fill="url(#a)"
         id="path20"
         style="fill:#ffffff;stroke-width:0.264583" /><path
         d="m 26.510741,124.79483 h 23.283333 c 1.168921,0 2.116666,0.94775 2.116666,2.11667 v 22.225 c 0,1.16892 -0.947745,2.11666 -2.116666,2.11666 H 26.510741 c -1.168921,0 -2.116667,-0.94774 -2.116667,-2.11666 v -22.225 c 0,-1.16892 0.947746,-2.11667 2.116667,-2.11667 z m 0,0"
         fill="#deddda"
         id="path21"
         style="stroke-width:0.264583;fill:#ffffff" /></g><g
       id="g17"
       transform="translate(0,-1.9542541)"><g
         id="g13"
         transform="translate(68.789605,-48.683338)"
         style="filter:url(#filter20)"><path
           d="m 26.506606,125.85316 h 23.283335 c 1.168918,0 2.116666,0.94775 2.116666,2.11667 v 22.225 c 0,1.16892 -0.947748,2.11667 -2.116666,2.11667 H 26.506606 c -1.16892,0 -2.116666,-0.94775 -2.116666,-2.11667 v -22.225 c 0,-1.16892 0.947746,-2.11667 2.116666,-2.11667 z m 0,0"
           fill="url(#a)"
           id="path15-6"
           style="fill:url(#linearGradient2);stroke-width:0.264583" /><path
           d="m 26.510741,124.79483 h 23.283333 c 1.168921,0 2.116666,0.94775 2.116666,2.11667 v 22.225 c 0,1.16892 -0.947745,2.11666 -2.116666,2.11666 H 26.510741 c -1.168921,0 -2.116667,-0.94774 -2.116667,-2.11666 v -22.225 c 0,-1.16892 0.947746,-2.11667 2.116667,-2.11667 z m 0,0"
           fill="#deddda"
           id="path16-2"
           style="stroke-width:0.264583" /><path
           d="m 27.297256,125.93171 h 21.710301 c 1.031463,0 1.866554,0.83303 1.866554,1.86035 v 6.78512 c 0,1.02629 -0.835091,1.85932 -1.866554,1.85932 H 27.297256 c -1.031462,0 -1.866553,-0.83303 -1.866553,-1.85932 v -6.78512 c 0,-1.02732 0.835091,-1.86035 1.866553,-1.86035 z m 0,0"
           fill="#262133"
           id="path17-9"
           style="stroke-width:0.264583" /><path
           d="m 27.317926,136.91915 h 21.668962 c 1.030428,0 1.865519,0.83303 1.865519,1.85932 v 9.55704 c 0,1.02629 -0.835091,1.85932 -1.865519,1.85932 H 27.317926 c -1.030428,0 -1.865519,-0.83303 -1.865519,-1.85932 v -9.55704 c 0,-1.02629 0.835091,-1.85932 1.865519,-1.85932 z m 0,0"
           fill="#262133"
           id="path18-1"
           style="stroke-width:0.264583" /><path
           d="m 27.569074,128.26749 c 0,-0.16433 0.04754,-0.29766 0.10542,-0.29766 h 1.905827 c 0.05788,0 0.10542,0.13333 0.10542,0.29766 v 0.29662 c 0,0.16433 -0.04754,0.29766 -0.10542,0.29766 h -1.905827 c -0.05788,0 -0.10542,-0.13333 -0.10542,-0.29766 z m 0,0"
           fill="#deddda"
           id="path19-2"
           style="stroke-width:0.264583" /><path
           d="m 31.273241,128.26749 c 0,-0.16433 0.04754,-0.29766 0.10542,-0.29766 h 1.905826 c 0.05788,0 0.10542,0.13333 0.10542,0.29766 v 0.29662 c 0,0.16433 -0.04754,0.29766 -0.10542,0.29766 h -1.905826 c -0.05788,0 -0.10542,-0.13333 -0.10542,-0.29766 z m 0,0"
           fill="#deddda"
           id="path20-7"
           style="stroke-width:0.264583" /><path
           d="m 27.569074,129.85499 c 0,-0.16433 0.01137,-0.29766 0.02687,-0.29766 h 0.475423 c 0.0155,0 0.02687,0.13333 0.02687,0.29766 v 0.29662 c 0,0.16433 -0.01137,0.29766 -0.02687,0.29766 h -0.475423 c -0.0155,0 -0.02687,-0.13333 -0.02687,-0.29766 z m 0,0"
           fill="#deddda"
           fill-opacity="0.6"
           id="path21-0"
           style="stroke-width:0.264583" /><path
           d="m 28.627407,131.44249 c 0,-0.16433 0.02377,-0.29766 0.05271,-0.29766 h 0.952914 c 0.02894,0 0.05271,0.13333 0.05271,0.29766 v 0.29662 c 0,0.16433 -0.02377,0.29766 -0.05271,0.29766 h -0.952914 c -0.02894,0 -0.05271,-0.13333 -0.05271,-0.29766 z m 0,0"
           fill="#009ccd"
           id="path22-9"
           style="stroke-width:0.264583" /><path
           d="m 27.569074,134.61749 c 0,-0.16434 0.03514,-0.29766 0.07958,-0.29766 h 1.428336 c 0.04444,0 0.07958,0.13332 0.07958,0.29766 v 0.29662 c 0,0.16433 -0.03514,0.29766 -0.07958,0.29766 h -1.428336 c -0.04444,0 -0.07958,-0.13333 -0.07958,-0.29766 z m 0,0"
           fill="#deddda"
           id="path23-3"
           style="stroke-width:0.264583" /><path
           d="m 29.685741,134.61749 c 0,-0.16434 0.02377,-0.29766 0.05271,-0.29766 h 0.952913 c 0.02894,0 0.05271,0.13332 0.05271,0.29766 v 0.29662 c 0,0.16433 -0.02377,0.29766 -0.05271,0.29766 h -0.952913 c -0.02894,0 -0.05271,-0.13333 -0.05271,-0.29766 z m 0,0"
           fill="#deddda"
           fill-opacity="0.6"
           id="path24-6"
           style="stroke-width:0.264583" /><path
           d="m 30.214907,131.44249 c 0,-0.16433 0.02377,-0.29766 0.05271,-0.29766 h 0.952914 c 0.02894,0 0.05271,0.13333 0.05271,0.29766 v 0.29662 c 0,0.16433 -0.02377,0.29766 -0.05271,0.29766 h -0.952914 c -0.02894,0 -0.05271,-0.13333 -0.05271,-0.29766 z m 0,0"
           fill="#89e777"
           id="path25-0"
           style="stroke-width:0.264583" /><path
           d="m 31.802407,131.44249 c 0,-0.16433 0.02377,-0.29766 0.05271,-0.29766 h 0.952913 c 0.02894,0 0.05271,0.13333 0.05271,0.29766 v 0.29662 c 0,0.16433 -0.02377,0.29766 -0.05271,0.29766 h -0.952913 c -0.02894,0 -0.05271,-0.13333 -0.05271,-0.29766 z m 0,0"
           fill="#fc7474"
           id="path26-6"
           style="stroke-width:0.264583" /><path
           d="m 28.627407,131.44249 c 0,-0.16433 0.02377,-0.29766 0.05271,-0.29766 h 0.952914 c 0.02894,0 0.05271,0.13333 0.05271,0.29766 v 0.29662 c 0,0.16433 -0.02377,0.29766 -0.05271,0.29766 h -0.952914 c -0.02894,0 -0.05271,-0.13333 -0.05271,-0.29766 z m 0,0"
           fill="url(#b)"
           id="path27-2"
           style="fill:url(#linearGradient3);stroke-width:0.264583" /><path
           d="m 30.214907,131.44249 c 0,-0.16433 0.02377,-0.29766 0.05271,-0.29766 h 0.952914 c 0.02894,0 0.05271,0.13333 0.05271,0.29766 v 0.29662 c 0,0.16433 -0.02377,0.29766 -0.05271,0.29766 h -0.952914 c -0.02894,0 -0.05271,-0.13333 -0.05271,-0.29766 z m 0,0"
           fill="url(#b)"
           id="path28-6"
           style="fill:url(#linearGradient4);stroke-width:0.264583" /><path
           d="m 31.802407,131.44249 c 0,-0.16433 0.02377,-0.29766 0.05271,-0.29766 h 0.952913 c 0.02894,0 0.05271,0.13333 0.05271,0.29766 v 0.29662 c 0,0.16433 -0.02377,0.29766 -0.05271,0.29766 h -0.952913 c -0.02894,0 -0.05271,-0.13333 -0.05271,-0.29766 z m 0,0"
           fill="url(#b)"
           id="path29-1"
           style="fill:url(#linearGradient48);stroke-width:0.264583" /><path
           d="m 27.569074,133.02999 c 0,-0.16434 0.01137,-0.29766 0.02687,-0.29766 h 0.475423 c 0.0155,0 0.02687,0.13332 0.02687,0.29766 v 0.29662 c 0,0.16433 -0.01137,0.29766 -0.02687,0.29766 h -0.475423 c -0.0155,0 -0.02687,-0.13333 -0.02687,-0.29766 z m 0,0"
           fill="#deddda"
           fill-opacity="0.6"
           id="path30-8"
           style="stroke-width:0.264583" /><path
           d="m 30.214907,128.26749 c 0,-0.16433 0.01137,-0.29766 0.02687,-0.29766 H 30.7172 c 0.0155,0 0.02687,0.13333 0.02687,0.29766 v 0.29662 c 0,0.16433 -0.01137,0.29766 -0.02687,0.29766 h -0.475423 c -0.0155,0 -0.02687,-0.13333 -0.02687,-0.29766 z m 0,0"
           fill="#deddda"
           fill-opacity="0.6"
           id="path31-7"
           style="stroke-width:0.264583" /><g
           stroke="url(#d)"
           id="g38-9"
           style="stroke:url(#linearGradient52)"
           transform="matrix(0.26458333,0,0,0.26458333,21.219074,121.61983)"><path
             d="m 92.612267,93.342208 8.212163,-1.236209"
             fill="url(#c)"
             stroke-width="2"
             transform="matrix(1.425097,0,0,1.425097,-73.21587,-57.424077)"
             id="path32-2"
             style="fill:url(#linearGradient5);stroke:url(#linearGradient6)" /><path
             d="M 104.57143,100.29075 V 94.775773"
             fill="none"
             stroke-width="2"
             transform="matrix(1.425097,0,0,1.425097,-73.21587,-57.424077)"
             id="path33-0"
             style="stroke:url(#linearGradient7)" /><path
             d="m 91.91056,96.625975 9.39903,5.210715"
             fill="url(#c)"
             stroke-width="2"
             transform="matrix(1.425097,0,0,1.425097,-73.21587,-57.424077)"
             id="path34-2"
             style="fill:url(#linearGradient8);stroke:url(#linearGradient9)" /><path
             d="m 92.749319,94.000058 c 0,2.623176 -2.127048,4.750224 -4.750224,4.750224 -2.623176,0 -4.747483,-2.127048 -4.747483,-4.750224 0,-2.623176 2.124307,-4.750224 4.747483,-4.750224 2.623176,0 4.750224,2.127048 4.750224,4.750224 z m 0,0"
             fill="none"
             stroke-width="1.99987"
             transform="matrix(1.425097,0,0,1.425097,-73.21587,-57.424077)"
             id="path35-3"
             style="stroke:url(#linearGradient10)" /><path
             d="m 108.37051,91.001359 c 0,2.096897 -1.70219,3.799083 -3.79908,3.799083 -2.09964,0 -3.79908,-1.702186 -3.79908,-3.799083 0,-2.099637 1.69944,-3.801823 3.79908,-3.801823 2.09689,0 3.79908,1.702186 3.79908,3.801823 z m 0,0"
             fill="none"
             stroke-width="2"
             transform="matrix(1.425097,0,0,1.425097,-73.21587,-57.424077)"
             id="path36-7"
             style="stroke:url(#linearGradient11)" /><path
             d="m 109.31891,104.99985 c 0,2.62318 -2.12705,4.75023 -4.74748,4.75023 -2.62318,0 -4.750225,-2.12705 -4.750225,-4.75023 0,-2.62317 2.127045,-4.74748 4.750225,-4.74748 2.62043,0 4.74748,2.12431 4.74748,4.74748 z m 0,0"
             fill="none"
             stroke-width="2"
             transform="matrix(1.425097,0,0,1.425097,-73.215872,-57.424077)"
             id="path37-5"
             style="stroke:url(#linearGradient12)" /><path
             d="m 105.56917,104.99985 c 0,0.5537 -0.44679,1.00048 -0.99774,1.00048 -0.55369,0 -1.00048,-0.44679 -1.00048,-1.00048 0,-0.55094 0.44679,-1.00047 1.00048,-1.00047 0.55095,0 0.99774,0.44953 0.99774,1.00047 z m 0,0"
             fill="url(#c)"
             transform="matrix(1.425097,0,0,1.425097,-73.215872,-57.424077)"
             id="path38-9"
             style="fill:url(#linearGradient51);stroke:url(#linearGradient13)" /></g></g><text
         xml:space="preserve"
         style="font-style:normal;font-variant:normal;font-weight:normal;font-stretch:normal;font-size:4.93889px;font-family:'Noto Sans';-inkscape-font-specification:'Noto Sans, Normal';font-variant-ligatures:normal;font-variant-caps:normal;font-variant-numeric:normal;font-variant-east-asian:normal;writing-mode:lr-tb;direction:ltr;fill:#c9d1d9;fill-opacity:1;stroke-width:0.264583"
         x="93.316025"
         y="113.48728"
         id="text13"><tspan
           sodipodi:role="line"
           id="tspan13"
           style="font-style:normal;font-variant:normal;font-weight:600;font-stretch:normal;font-size:4.93889px;font-family:'Noto Sans';-inkscape-font-specification:'Noto Sans, Semi-Bold';font-variant-ligatures:normal;font-variant-caps:normal;font-variant-numeric:normal;font-variant-east-asian:normal;fill:#c9d1d9;fill-opacity:1;stroke-width:0.264583"
           x="93.316025"
           y="113.48728">Corese-GUI</tspan></text><g
         id="g44"
         transform="translate(68.789605,-48.683338)"
         style="filter:url(#filter20);fill:#ffffff" /></g><text
       xml:space="preserve"
       style="font-style:normal;font-variant:normal;font-weight:normal;font-stretch:normal;font-size:3.175px;font-family:sans-serif;-inkscape-font-specification:sans-serif;writing-mode:lr-tb;direction:ltr;fill:#000000;stroke-width:0.264583"
       x="71.881676"
       y="99.725433"
       id="text1"><tspan
         sodipodi:role="line"
         id="tspan1"
         style="stroke-width:0.264583"
         x="71.881676"
         y="99.725433" /></text></g></svg>
